<?xml version="1.0" encoding="UTF-8"?>
<svg viewBox="0 0 144.49731 240.93161" xmlns="http://www.w3.org/2000/svg">
 <defs>
  <linearGradient id="a" x1="200.38" x2="247.31" y1="498.13" y2="539.27" gradientTransform="matrix(1.8854 0 0 1 38.598 128.35)" gradientUnits="userSpaceOnUse">
   <stop offset="0"/>
   <stop stop-opacity="0" offset="1"/>
  </linearGradient>
 </defs>
 <g transform="translate(4.2815 23.434)">
  <g transform="translate(-385.06 -436.3)">
   <path d="m448.63 637.35c34.771-0.95673-37.165 3.9073-41.55 4.2426-22.234 0.97493 47.057-2.0201 71.125-3.0373 50.583-1.4611-67.882 5.02-74.597 5.5816 2.0463-3.1136 92.723-8.9851 68.224-3.784-38.691 7.1103-31.661 4.9317 5.6051 3.4211 61.262-1.8947-13.323 3.6567-34.373 5.4335-11.636-2.0254 107.31-9.5542 52.493-3.2312-3.3875 1.6942-21.244 2.6047 4.6048 0.23081 3.4228-0.31433-6.7596 0.74906-10.05 1.2132-11.11 1.567-11.675 1.9892 0.057 2.6185 11.686 0.46827 23.404 0.8133 35.109 1.2157l-16.875 2.5372c-11.833-0.45518-23.696-0.77239-35.541-1.1824-33.106-1.6894 34.371-10.975 42.144-8.1286-15.213 1.809-99.786 7.0647-54.703 1.9021 52.644-3.6075 36.734-0.85571 0.71134 0.0141-36.399 1.6484-50.514 2.2494-7.9162-5.089 17.662-3.0746-86.064 6.7803-31.882-0.058 22.491-1.4871 118.79-6.8722 40.849-0.1219-27.751 1.0589-126.95 5.8169-38.777-2.1852 40.545-3.034 51.817-1.8277 6.9156 1.0611l18.428-2.6537z" fill="url(#a)"/>
   <path d="m436.67 581.99c0.31231-25.284-0.969-35.312-0.969-35.312 4.3403-19.495 0.5715-33.613 0.5715-33.613" fill="none" stroke="#027eb6" stroke-width="1.9"/>
   <path d="m465.26 569.44c2.5165 9.6158-3.1533 24.575-5.5619 32.366-9.6188 31.116-13.338 27.84-13.201 29.141 0.16684 1.5884 0.14039 3.6743 0.14039 3.6743" fill="none" stroke="#027eb6" stroke-width="1.9"/>
   <path d="m468.64 569.79c4.6886 4.9871 12.657 15.503 18.671 27.299 3.6384 14.794 6.1745 29.165 7.86 34.043 0.52158 1.5096 11.848 0.81572 11.848 0.81572" fill="none" stroke="#027eb6" stroke-width="1.9"/>
   <path d="m447.97 630.18c-2.444 2.4847-8.1626 2.4836-5.5558 4.0406 5.3668 3.2055 4.9739 6.7943 8.5863 3.0305 3.9322-4.0971 13.132-0.50508-3.0305-7.0711z" fill-rule="evenodd" stroke="#027eb6"  fill="#027eb6"/>
   <path d="m498.32 628.57c-2.444 3.2016-5.6626 2.7163-3.0558 3.5085 5.3668 1.6311 12.831 2.3158 16.443-2.5077 3.9322-5.2506 2.7748 0.82375-13.388-1.0008z" fill-rule="evenodd" stroke="#027eb6"  fill="#027eb6"/>
   <path d="m418.01 439.7c3.0607 3.9427 7.3803 4.4638 4.8662 4.5846-5.1759 0.24878-6.8912 7.3894-11.431 1.4679-0.54628-0.71249 2.3848-0.94697 1.7168-1.6557-5.3746-5.7028-12.97-10.636 4.8484-4.3968z" fill-rule="evenodd" stroke="#027eb6" fill="#027eb6"/>
   <path d="m438.49 591.56c-0.84277 2.5969-0.28308 8.7219-1.383 5.7978-2.4074-6.3997-7.8124-7.3769-3.6801-10.685 4.4982-3.6015 4.0334-14.749 5.0631 4.8877z" fill-rule="evenodd" stroke="#027eb6" fill="#027eb6"/>
   <path d="m420.64 443.25c16.7 10.097 26.28 30.478 25.944 34.811-1.269 16.37-2.9384 21.295-9.2507 35.438" fill="none" stroke="#027eb6" stroke-width="1.9"/>
   <path d="m433.31 507.36c0.75468 2.3404 1.6073 3.0258 3.98 5.2362 14.829 13.815 35.476 58.527 30.591 58.529-7.5151 4e-3 -19.207-46.687-30.668-58.48-1.4461-1.4879-3.2513-3.4687-3.9024-5.2852z" fill="none" stroke="#027eb6" stroke-width="3"/>
   <path transform="matrix(.39916 -1.0093 .9239 .38571 -122.09 810.21)" d="m444.03 362.03c5.1653-9.4742 13.303-9.0126 18.175 1.0312s4.635 25.866-0.53031 35.34-13.303 9.0126-18.175-1.0312c-4.8278-9.9517-4.6452-25.601 0.40978-35.116" fill="none" stroke="#027eb6" stroke-linecap="round" stroke-width="2.3534"/>
   <path transform="matrix(.2132 -.91486 .88061 .28549 13.441 667.64)" d="m293.26 368.63c1.4348-1.7595 3.6952-1.6738 5.0486 0.1915s1.2875 4.8037-0.14731 6.5632-3.6952 1.6738-5.0486-0.1915c-1.3411-1.8482-1.2903-4.7544 0.11383-6.5216" fill="none" stroke="#027eb6" stroke-linecap="round" stroke-width="2.2291"/>
   <path transform="matrix(.26762 -.96352 .96352 .26762 -31.436 676.81)" d="m293.26 368.63c1.4348-1.7595 3.6952-1.6738 5.0486 0.1915s1.2875 4.8037-0.14731 6.5632-3.6952 1.6738-5.0486-0.1915c-1.3411-1.8482-1.2903-4.7544 0.11383-6.5216" fill="none" stroke="#027eb6" stroke-linecap="round" stroke-width="2.075"/>
   <path d="m423.66 497.74c4.1909 4.0016 2.5833 10.179-2.6402 12.427-2.4467 0.50592-0.19057-11.855 2.6402-12.427z" fill="none" stroke="#027eb6" stroke-linecap="round" stroke-linejoin="round" stroke-width="2"/>
  </g>
  <path d="m9.4367-18.463c0.18576-2.0227-0.87679-2.7283 0.3677-3.0468 8.5413-2.1863 13.286-0.60255 20.24 5.9404 0.64601 0.60787 1.2276 0.93947-0.5723 2.7489-4.0972 4.1189-4.3481 13.056-4.0221 17.89-7.1578-0.95596-19.831-3.5231-24.298-7.3869 5.6988-3.4238 8.099-14.123 8.2848-16.146z" stroke="#c8008f" stroke-width="2" fill="#c8008f"/>
  <path d="m23.448-0.84611c-8.8286-3.9179-20.779-5.901-24.841-4.4008-4.5604 1.6845-2.2175 3.9778 3.8631 6.9018s12.998 4.7796 20.224 5.7588 10.286-3.1676 3.8452-6.7324c-0.96971-0.53668-2.0073-1.0463-3.0915-1.5275zm-2.1059 1.5139c0.9378 0.40467 1.8194 0.83366 2.6212 1.287 4.9752 2.8128 3.3169 4.2694-2.2267 3.2698s-10.943-2.4402-15.816-4.3814-7.2374-3.0698-3.5963-3.8739c3.1859-0.70358 12.454 0.86592 19.018 3.6986z" />
  <path d="m3.5444-6.5005c-0.74062 0.74843-1.154 1.1699-1.754 2.0243s-0.53594 1.2794 1.0881 2.5174 10.102 5.7892 20.435 5.7603" fill="none" stroke="#fff" stroke-linecap="round" stroke-linejoin="round"/>
  <path d="m7.3326 196.85c0.91658-1.8332 52.703-52.245 52.703-52.245 11.201-11.089 11.618 3.8301 6.7631 5.9538" fill="none" stroke="#008a25" stroke-linecap="round" stroke-linejoin="round" stroke-width="3"/>
  <path d="m54.038 147.87c0.0022 1.968-0.06288 3.3727 0.25256 5.3017" fill="none" stroke="#fff"/>
  <path d="m46.867 155.37 2.0659 2.1874" fill="none" stroke="#fff"/>
 </g>
</svg>
