<?xml version="1.0" encoding="UTF-8"?>
<svg viewBox="0 0 212.51134 201.39857" xmlns="http://www.w3.org/2000/svg" xmlns:xlink="http://www.w3.org/1999/xlink">
 <g transform="translate(45.844 -15.236)" stroke="#c8008f">
  <path transform="translate(-.09038 1.0316)" d="m-44.253 189.74c101.05 37.104 85.868 26.899 209.51 2.0744" fill="none" stroke-width="3" stroke="#027eb6"/>
  <path transform="translate(-3.0305 .21677)" d="m48.837 137.16c36.75-5.0004 45.597 33.122 48.158 33.674 1.5443 0.3327 6.0668-9.6642 6.0668-9.6642" fill="none" stroke-width="1.9"/>
  <path transform="translate(-3.0305 .21677)" d="m45.627 137.53c1.4888 77.482-6.4461 62.621-5.9877 64.36" fill="none" stroke-width="1.9"/>
  <path transform="translate(-3.0305 .21677)" d="m42.126 200.8c-2.6216 1.0278-3.9355-1.3946-1.548 2.0872 2.4444 3.5648 3.9626 5.5571 6.9815 8.9373 1.8247 2.0431 13.178 2.1318-5.4335-11.024z" fill-rule="evenodd" fill="#c8008f"/>
  <path transform="translate(-3.0305 .21677)" d="m97.03 167.7c0.53471 4.6189-1.676 7.0126 0.36189 5.3871 4.1956-3.3466 9.0492-9.2438 8.2023-16.142-0.92193-7.5095 2.1572-1.7457-8.5642 10.755z" fill-rule="evenodd" fill="#c8008f"/>
  <g transform="matrix(.40899 .84132 .63658 -.54053 -18.535 107.35)">
   <path d="m10.599 72.426c-2.701-10.175-9.3916-22.386-12.938-29.631-11.992-24.498-23.201-23.828-25.417-35.852" fill="none" stroke-width="2.1843"/>
   <path d="m-31.298 5.4108c3.4848-0.05456 5.1285 8.424 4.3644 5.4854-1.5731-6.05 3.6546-12.795-1.5602-12.649-5.6765 0.1586-9.7087-8.857-2.8042 7.1638z" fill-rule="evenodd" stroke-width="1.1496" fill="#c8008f"/>
  </g>
  <g transform="matrix(.53784 -.78626 -.6844 -.61789 41.483 178.52)" >
   <path d="m75.531 71.396c9.6705-6.2817 16.027-14.759 22.259-21.834 5.1762-15.898 14.43-39.413 14.43-39.413" fill="none" stroke-width="2.0365"/>
   <path d="m111.27 4.2184c2.3258 2.6813-1.2861 11.259-0.16229 8.1339 2.3138-6.4342 9.4924-8.1415 5.9764-12.099-3.8273-4.3078-1.4914-15.217-5.8141 3.965z" fill-rule="evenodd" stroke-width="1.0718" fill="#c8008f"/>
  </g>
  <path d="m33.641 66.627c0.77197 2.3348 0.48809 3.3912-0.12284 6.5759-3.8183 19.904 5.9004 68.185 9.846 65.303 6.0689-4.4322-12.047-49.025-9.7544-65.31 0.28931-2.0546 0.57767-4.719 0.03133-6.5697z" fill="none" stroke-width="3" />
  <path transform="matrix(1.0844 -.04499 .0226 1.0009 -467.32 -318.71)" d="m444.03 362.03a12.857 25 0 1 1 -0.12053 0.22395" fill="none" stroke-linecap="round" stroke-width="2.3534" />
  <path transform="matrix(.98919 -.14661 .14661 .98919 -318.17 -287.82)" d="m293.26 368.63a3.5714 4.6429 0 1 1 -0.0335 0.0416" fill="none" stroke-linecap="round" stroke-width="2.075"/>
  <path transform="matrix(.98919 -.14661 .14661 .98919 -307.02 -288.31)" d="m293.26 368.63a3.5714 4.6429 0 1 1 -0.0335 0.0416" fill="none" stroke-linecap="round" stroke-width="2.075"/>
  <path d="m40.303 54.123c-1.9186-0.35775-3.549-3.7753-7.7087-0.89957-1.479 1.0224-2.8846 3.078-7.0502 1.3402" fill="none" stroke-width="1.25"/>
  <path transform="matrix(.26669 -.03225 .03953 .21756 -63.407 -34.712)" d="m293.26 368.63a3.5714 4.6429 0 1 1 -0.0335 0.0416" fill="none" stroke-linecap="round" stroke-width="8.5213"/>
  <path transform="matrix(.26669 -.03225 .03953 .21756 -55.034 -35.14)" d="m293.26 368.63a3.5714 4.6429 0 1 1 -0.0335 0.0416" fill="none" stroke-linecap="round" stroke-width="8.5213"/>
 </g>
</svg>
