<?xml version="1.0" encoding="UTF-8"?>
<svg viewBox="0 0 92.808357 202.60059" xmlns="http://www.w3.org/2000/svg">
 <defs>
  <linearGradient id="a" x1="41.922" x2="88.849" y1="194.46" y2="235.6" gradientUnits="userSpaceOnUse">
   <stop offset="0"/>
   <stop stop-opacity="0" offset="1"/>
  </linearGradient>
 </defs>
 <g transform="translate(-6.868 -19.171)">
  <path d="m59.024 205.33c18.443-0.95673-19.712 3.9073-22.038 4.2426-11.793 0.97493 24.959-2.0201 37.724-3.0373 26.829-1.4611-36.004 5.02-39.566 5.5816 1.0854-3.1136 49.18-8.9851 36.186-3.784-20.522 7.1103-16.793 4.9317 2.9729 3.4211 32.493-1.8947-7.0662 3.6567-18.231 5.4335-6.1714-2.0254 56.914-9.5542 27.842-3.2312-1.7967 1.6942-11.268 2.6047 2.4423 0.23081 1.8154-0.31433-3.5852 0.74906-5.3306 1.2132-5.8929 1.567-6.1924 1.9892 0.03024 2.6185 6.1984 0.46827 12.413 0.8133 18.621 1.2157l-8.9504 2.5372c-6.276-0.45518-12.568-0.77239-18.851-1.1824-17.559-1.6894 18.23-10.975 22.353-8.1286-8.0689 1.809-52.926 7.0647-29.014 1.9021 27.922-3.6075 19.484-0.85571 0.37729 0.0141-19.306 1.6484-26.792 2.2494-4.1987-5.089 9.3678-3.0746-45.648 6.7803-16.91-0.058 11.929-1.4871 63.007-6.8722 21.666-0.1219-14.719 1.0589-67.331 5.8169-20.567-2.1852 21.505-3.034 27.484-1.8277 3.668 1.0611l9.7742-2.6537z" fill="url(#a)"/>
  <path transform="translate(-3.0305 .21678)" d="m20.983 53.365c-2.8957 26.044-10.135 44.43-10.135 44.43 7.5483 0.66964 35.86-17.573 35.86-17.573" fill="none" stroke="#027eb6" stroke-width="1.9"/>
  <path transform="translate(-3.0305 .21678)" d="m45.106 138.71c-1.8483 65.272-5.8126 61.657-5.26 63.196 0.5398 1.5032 1.0102 3.5355 1.0102 3.5355" fill="none" stroke="#027eb6" stroke-width="1.9"/>
  <path transform="translate(-3.0305 .21678)" d="m48.785 139.73c0.11298 23.613 1.1816 56.125 0.17977 62.03-0.26714 1.5747 11.619 1.7323 11.619 1.7323" fill="none" stroke="#027eb6" stroke-width="1.9"/>
  <path transform="translate(-3.0305 .21678)" d="m39.341 202.41c-2.444 2.4847-8.1626 2.4836-5.5558 4.0406 5.3668 3.2055 4.9739 6.7943 8.5863 3.0305 3.9322-4.0971 13.132-0.50508-3.0305-7.0711z" fill-rule="evenodd" stroke="#027eb6" fill="#027eb6"/>
  <path transform="translate(-3.0305 .21678)" d="m52.341 199.84c-2.444 2.4847-5.6626 1.0551-3.0558 2.612 5.3668 3.2055 12.831 6.08 16.443 2.3162 3.9322-4.0971 2.7748 1.6378-13.388-4.9282z" fill-rule="evenodd" stroke="#027eb6" fill="#027eb6"/>
  <path transform="translate(-3.0305 .21678)" d="m96.42 34.964c-3.6434 3.4115-3.7636 7.7607-4.116 5.2686-0.7254-5.1309-8.1489-2.5856-2.6717-7.6529 5.9622-5.516 11.924-18.21 6.7876 2.3843z" fill-rule="evenodd" stroke="#027eb6" fill="#027eb6"/>
  <path transform="translate(-3.0305 .21678)" d="m22.274 48.465c-0.84277 2.5969-0.28308 8.7219-1.383 5.7978-2.4073-6.3997-7.8124-7.3769-3.6801-10.685 4.4982-3.6015 4.0334-14.749 5.0631 4.8877z" fill-rule="evenodd" stroke="#027eb6" fill="#027eb6"/>
  <path transform="translate(-3.0305 .21678)" d="m93.631 35.912c-5.6568 17.865-12.117 32.801-13.133 36.743-14.704 6.0536-17.754 5.204-31.028 8.6058" fill="none" stroke="#027eb6" stroke-width="1.9"/>
  <path d="m42.275 70.777c-0.36461 2.4319 0.09441 3.4249 1.2369 6.4597 7.1402 18.967 5.7548 68.197 1.3775 66.027-6.733-3.3382 3.5542-50.359-1.4688-66.018-0.63375-1.9758-1.37-4.5525-1.1456-6.4691z" fill="none" stroke="#027eb6" stroke-width="3"/>
  <path transform="matrix(1.0721 -.16942 .13758 .99168 -498.94 -255.05)" d="m444.03 362.03c5.1653-9.4742 13.303-9.0126 18.175 1.0312s4.635 25.866-0.53031 35.34-13.303 9.0126-18.175-1.0312c-4.8278-9.9517-4.6452-25.601 0.40978-35.116" fill="none" stroke="#027eb6" stroke-linecap="round" stroke-width="2.3534"/>
  <path transform="matrix(.96577 -.25942 .25942 .96577 -347.24 -242.63)" d="m293.26 368.63c1.4348-1.7595 3.6952-1.6738 5.0486 0.1915s1.2875 4.8037-0.14731 6.5632-3.6952 1.6738-5.0486-0.1915c-1.3411-1.8482-1.2903-4.7544 0.11383-6.5216" fill="none" stroke="#027eb6" stroke-linecap="round" stroke-width="2.075"/>
  <path transform="matrix(.96577 -.25942 .25942 .96577 -335.99 -245.65)" d="m293.26 368.63c1.4348-1.7595 3.6952-1.6738 5.0486 0.1915s1.2875 4.8037-0.14731 6.5632-3.6952 1.6738-5.0486-0.1915c-1.3411-1.8482-1.2903-4.7544 0.11383-6.5216" fill="none" stroke="#027eb6" stroke-linecap="round" stroke-width="2.075"/>
  <path d="m46.802 58.808c2.0004 11.902-11.819 6.4499-11.105 2.2096 0.96099-5.7084 10.73-4.4425 11.105-2.2096z" fill="none" stroke="#027eb6" stroke-linecap="round" stroke-linejoin="round" stroke-width="2"/>
 </g>
</svg>
