<?xml version="1.0" encoding="UTF-8"?>
<svg viewBox="0 0 107.1547 227.42058" xmlns="http://www.w3.org/2000/svg">
 <defs>
  <linearGradient id="a" x1="-1.4417" x2="273.19" y1="137.61" y2="169.97" gradientUnits="userSpaceOnUse">
   <stop offset="0"/>
   <stop stop-opacity="0" offset="1"/>
  </linearGradient>
 </defs>
 <g transform="translate(-83.399 68.258)">
  <path d="m131.81 137.76c20.964 2.2479-22.407 2.8739-25.051 2.9831-13.405-0.77307 28.371 1.7153 42.882 2.622 30.497 3.1433-40.926 1.3775-44.975 1.6326 1.2337-5.4601 55.903-5.7744 41.133 0.92259-23.327 8.5574-19.089 5.3806 3.3794 6.9022 15.255 0.0779 24.749-1.9386 37.554-2.9098 0.45387 1.8313 1.2212 3.7077 3.8212 6.7789-6.2759-0.14532-5.0514-0.0664-16.314 0.37385-19.622 1.433-79.057 7.6439-39.737-11.553 10.649-3.5933-51.889 2.507-19.222-3.7718 13.56-0.1343 71.621 1.088 24.628 4.4738-16.731-1.2539-76.536-3.9557-23.379-8.4557 24.445-0.8879 31.241 2.6146 4.1695 2.7361l11.11-2.7353 4e-5 4e-5z" fill="url(#a)"/>
  <path d="m185.7 101.83c-1.8039 0.0721 3.2541-8.2312 2.1019-9.0354-10-16.463-10.929-23.798-19.419-27.912-11.357 0.32953-25.134-1.0252-41.579 1.7134" fill="none" stroke="#ee0220" stroke-width="1.9"/>
  <path d="m98.786 4.8292c14.918-1.3739 32.411 8.3354 40.958 6.9067 1.9025-16.729-5.3061-43.971-4.1118-43.58 1.5179 0.49702 10.815 1.0166 10.815 1.0166" fill="none" stroke="#ee0220" stroke-width="1.9"/>
  <path d="m98.664 5.6034c-0.0591-11.345 8.9445-27.156 6.6801-39.063-5.8921-6.4026-15.268-21.231-20.813-25.005-1.6741-1.1391 8.7636-4.7392 8.7636-4.7392" fill="none" stroke="#ee0220" stroke-width="1.9"/>
  <path d="m145.86-28.414c2.2168-2.9111 8.2978-1.6242 5.5646-2.6732-5.6271-2.1597-5.1109-0.82701-10.227-1.4661-5.5403-0.69213-12.014 0.68377 4.6622 4.1393z" fill-rule="evenodd" stroke="#ee0220" fill="#ee0220"/>
  <path d="m88.465-58.342c-3.0818-1.6276-5.7161 0.70987-3.7035-1.5636 4.1436-4.6806 10.386-9.6812 14.969-7.1886 4.9885 2.7134-1.1878-0.73333-11.266 8.7522z" fill-rule="evenodd" stroke="#ee0220" fill="#ee0220"/>
  <path d="m187.8 102.87c-2.2874 1.9924-1.2281 3.0525-2.8472 3.8819-3.2408 1.6601-4.5357 0.61517-0.93701-4.1393 3.9174-5.1754 6.564-18.242 3.7842 0.25747z" fill-rule="evenodd" stroke="#ee0220" fill="#ee0220"/>
  <g transform="matrix(.72487 .09472 -.17301 .88293 44.079 -5.6892)" stroke="#ee0220">
   <path d="m129.59 76.976c-0.78172 24.434 1.5233 16.182 1.227 37.294-4.0574 22.514-1.4112 5.3452-6.761 38.058-1.2959-0.46113-11.638 0.43821-11.638 0.43821" fill="none" stroke-width="2.3451"/>
   <path d="m116.86 153.55c3.9291-1.1003 8.979 9e-3 6.8626-1.5477-2.0269-1.4913-7.806-6.0637-10.784-2.3773-3.2414 4.0127-12.658 4.3602 3.9212 3.9251z" fill-rule="evenodd" stroke-width="1.2343" fill="#ee0220"/>
  </g>
  <path d="m126.35 77.472c-1.3203-2.4035-1.2515-3.3849-1.3016-6.3843 2.0819-9.34-8.4736-21.975-15.335-38.552-3.6158-8.7358-1.9519-21.714-9.2346-26.705-4.2787-2.9322 2.9349 23.248 4.589 27.765 2.7078 7.3948 17.317 27.297 19.885 37.482 0.44648 1.7706 0.419 4.4994 1.3965 6.3936z" fill="none" stroke="#ee0220" stroke-width="3"/>
  <path transform="matrix(.9719 -.48317 -.46254 -.88793 -124.61 653.26)" d="m444.03 362.03a12.857 25 0 1 1 -0.12053 0.22395" fill="none" stroke="#ee0220" stroke-linecap="round" stroke-width="2.3534"/>
  <path transform="matrix(.93741 -.34822 -.34822 -.93741 -.12861 547.56)" d="m293.26 368.63a3.5714 4.6429 0 1 1 -0.0335 0.0416" fill="none" stroke="#ee0220" stroke-linecap="round" stroke-width="2.075"/>
  <path d="m143.26 79.085c-4.5534 1.2785-4.5039 5.9527-4.4287 7.4343" fill="none" stroke="#ee0220" stroke-width="1.25"/>
 </g>
</svg>
