<?xml version="1.0" encoding="UTF-8"?>
<svg viewBox="0 0 87.284286 208.55292" xmlns="http://www.w3.org/2000/svg">
 <defs>
  <linearGradient id="a" x1="126.25" x2="-42.202" y1="170.8" y2="132.23" gradientUnits="userSpaceOnUse">
   <stop stop-color="#6b6b6b" offset="0"/>
   <stop stop-opacity=".49804" offset=".51454"/>
   <stop stop-opacity="0" offset="1"/>
  </linearGradient>
 </defs>
 <g transform="translate(-41.74 65.735)">
  <path d="m74.694 121.79c18.4 2.2479-19.666 2.8739-21.987 2.9831-11.765-0.77307 24.901 1.7153 37.636 2.622 26.767 3.1433-35.92 1.3775-39.474 1.6326 1.0828-5.4601 49.065-5.7744 36.102 0.92259-20.474 8.5574-16.754 5.3806 2.966 6.9022 12.008 1.4269 21.721-1.9386 32.961-2.9098 0.39835 1.8313 1.0718 3.7077 3.3538 6.7789-5.5083-0.14532-5.6175-0.96574-15.502-0.52548-10.63-1.1211-36.084 3.3865-31.469 2.0018 22.121-1.53-49.441 7.1538-2.2227-12.655 9.3461-3.5933-45.542 2.507-16.871-3.7718 11.901-0.1343 62.86 1.088 21.616 4.4738-14.685-1.2539-67.175-3.9557-20.52-8.4557 21.455-0.8879 27.42 2.6146 3.6595 2.7361l9.7515-2.7353 4e-5 4e-5z" fill="url(#a)"/>
 </g>
 <g transform="translate(-44.77 65.951)" stroke="#c8008f">
  <path d="m99.788 121.13c-0.0361-1.3538 6.5111 2.5438 7.1646 1.6898 10.333-13.504 14.698-20.409 14.698-20.409 2.6873-6.051 6.8694-25.009 6.8694-25.009" fill="none" stroke-width="1.9"/>
  <path d="m104.25 4.1648c3.3788-14.595 7.2882-25.57 8.6148-34.133-2.7811-10.501-7.059-28.477-6.3128-29.489 0.94841-1.2851 8.5023-2.4225 8.5023-2.4225" fill="none" stroke-width="1.9"/>
  <path d="m102.07 5.2424c-7.5111-8.503-16.702-21.767-26.244-29.241-8.6499-0.94278-22.15-0.77504-28.808 0.03367-2.0101 0.24415 2.4636-8.4479 2.4636-8.4479" fill="none" stroke-width="1.9"/>
  <path d="m117.86-60.544c2.2168-3.8005 8.2978-4.9531 5.5646-4.9056-5.6271 0.09779-5.1109 1.2234-10.227 2.6367-5.5403 1.5305-12.014 5.5034 4.6622 2.2689z" fill-rule="evenodd" fill="#c8008f"/>
  <path d="m49.51-26.397c-3.4837-0.10173-4.8173 3.1579-4.0135 0.22985 1.6548-6.0282 5.0526-13.269 10.265-13.053 5.6738 0.23541 0.86916-3.1027-6.2515 12.823z" fill-rule="evenodd" fill="#c8008f"/>
  <path d="m97.085 124.25c-3.2276-2.3502-3.8357-0.50769-5.5042-2.3921-3.3398-3.7719-2.8626-5.9288 3.9332-2.8475 7.3975 3.3541 22.545 1.9802 1.571 5.2396z" fill-rule="evenodd" fill="#c8008f"/>
  <g transform="matrix(.72981 0 0 .80444 35.611 14.866)">
   <path d="m129.59 76.976c-0.78172 24.434 1.5233 16.182 1.227 37.294-4.0574 22.514-1.4112 5.3452-6.761 38.058-1.2959-0.46113-11.638 0.43821-11.638 0.43821" fill="none" stroke-width="2.4797"/>
   <path d="m116.86 153.55c3.9291-1.1003 8.979 9e-3 6.8626-1.5477-2.0269-1.4913-7.806-6.0637-10.784-2.3773-3.2414 4.0127-12.658 4.3602 3.9212 3.9251z" fill-rule="evenodd" stroke-width="1.3051" fill="#c8008f"/>
  </g>
 </g>
 <g transform="translate(-41.74 65.735)">
  <path d="m126.35 77.472c-1.3203-2.4035-1.2515-3.3849-1.3016-6.3843 7.1489-18.069-18.12-65.318-24.569-65.256-4.8536 0.04681 27.767 42.568 24.474 65.247-0.26238 1.8071 0.419 4.4994 1.3965 6.3936z" fill="none" stroke="#c8008f" stroke-width="3"/>
 </g>
 <g transform="translate(-41.74 65.735)" fill="none" stroke="#c8008f">
  <path transform="matrix(.41172 1.0042 .91902 -.39721 -434.44 -219.95)" d="m444.03 362.03c5.1653-9.4742 13.303-9.0126 18.175 1.0312s4.635 25.866-0.53031 35.34-13.303 9.0126-18.175-1.0312c-4.8278-9.9517-4.6452-25.601 0.40978-35.116" stroke-linecap="round" stroke-width="2.3534"/>
  <path transform="matrix(.27962 .96011 .96011 -.27962 -341.82 -86.069)" d="m293.26 368.63c1.4348-1.7595 3.6952-1.6738 5.0486 0.1915s1.2875 4.8037-0.14731 6.5632-3.6952 1.6738-5.0486-0.1915c-1.3411-1.8482-1.2903-4.7544 0.11383-6.5216" stroke-linecap="round" stroke-width="2.075"/>
  <path d="m117.92 90.121c-3.7674-2.8591-2.0074-7.1896-1.3942-8.5404" stroke-width="1.25"/>
 </g>
</svg>
