<?xml version="1.0" encoding="UTF-8"?>
<svg viewBox="0 0 139.6532 188.99004" xmlns="http://www.w3.org/2000/svg">
 <defs>
  <linearGradient id="a" x1="87.382" x2="280.17" y1="284.3" y2="294.88" gradientUnits="userSpaceOnUse">
   <stop offset="0"/>
   <stop stop-opacity="0" offset="1"/>
  </linearGradient>
 </defs>
 <g transform="translate(-78.242 11.239)">
  <path transform="matrix(1.085 -.02919 -.04582 -1.0001 -338.44 514.97)" d="m444.03 362.03a12.857 25 0 1 1 -0.12053 0.22395" fill="none" stroke="#c8008f" stroke-linecap="round" stroke-width="2.3534"/>
  <path transform="matrix(.9969 .0787 .0787 -.9969 -181.04 471.48)" d="m293.26 368.63a3.5714 4.6429 0 1 1 -0.0335 0.0416" fill="none" stroke="#c8008f" stroke-linecap="round" stroke-width="2.075"/>
  <path d="m143.66 110.09c-7.0072-6.9289-11.574-0.83832-12.491 1.5057" fill="none" stroke="#c8008f" stroke-width="1.25"/>
  <path transform="matrix(.9969 .0787 .0787 -.9969 -192.24 471.67)" d="m293.26 368.63a3.5714 4.6429 0 1 1 -0.0335 0.0416" fill="none" stroke="#c8008f" stroke-linecap="round" stroke-width="2.075"/>
  <path d="m134 96.37c-0.98019-2.6515-0.77502-3.5871-0.40733-6.5095-2.6336-11.97-15.35-46.738-15.91-69.59-9.5575 11.238 8.4899 56.379 14.995 69.558 0.1981 1.826 0.61232 4.4671 1.3221 6.5415z" fill="none" stroke="#c8008f" stroke-linecap="round" stroke-linejoin="round" stroke-width="3"/>
  <path transform="translate(-3.0305 .21678)" d="m123.23 153.39c-15.074-2.913-43.11-6.4013-40.351-10.001 5.5762-7.2733 36.941-47.516 51.279-55.339" fill="none" stroke="#c8008f" stroke-width="1.9"/>
  <path transform="translate(-3.0305 .21678)" d="m121.1 20.298c35.551-2.2786 59.08-2.4993 86.4-20.726 1.2246-0.87792 4.247 11.978 4.247 11.978" fill="none" stroke="#c8008f" stroke-width="1.9"/>
  <path transform="translate(-3.0305 .21678)" d="m120.5 20.584c3.3772-3.619 68.701-29.654 88.499-30.004 0.96926 1.2792 2.6497 1.7845 6.1168 3.0742" fill="none" stroke="#c8008f" stroke-width="1.9"/>
  <path transform="translate(-3.0305 .21678)" d="m207.85 5.6362c1.5784-3.3011-2.3423-8.1244-0.16138-6.1713 4.49 4.021 3.0686 4.17 5.9723 8.4302 3.1446 4.6136 4.875 11.001-5.811-2.2589z" fill-rule="evenodd" stroke="#c8008f" fill="#c8008f"/>
  <path transform="translate(-3.0305 .21678)" d="m208.64-6.5598c0.64822-3.4244-2.3612-5.2539 0.40406-3.9997 5.693 2.5821 12.31 7.0762 11.277 12.19-1.1246 5.5662 0.35116-1.3511-11.681-8.19z" fill-rule="evenodd" stroke="#c8008f" fill="#c8008f"/>
  <path transform="translate(-3.0305 .21678)" d="m129.49 152.77c1.5965 2.1304 2.8139 0.91402 3.3707 2.4893 1.1145 3.153-0.12595 4.611-4.2363 1.447-4.4743-3.4441-16.942-4.6618 0.86566-3.9363z" fill-rule="evenodd" stroke="#c8008f" fill="#c8008f"/>
  <g transform="matrix(.72487 .09472 -.17301 .88293 110.3 2.7884)" stroke="#c8008f">
   <path d="m53.999 91.609c30.684 3.1627 28.868 7.638 49.737 16.619 2.0792 10.091 13.779 54.277 13.779 54.277l12.36-1.0837" fill="none" stroke-width="2.3451"/>
   <path d="m132.05 161.39c6.074-1.3304 13.573-0.4838 10.563-1.9448-2.8819-1.3996-11.06-5.7146-16.012-1.8165-5.3902 4.2433-19.669 5.1123 5.4484 3.7612z" fill-rule="evenodd" stroke-width="1.2343" stroke="#c8008f" fill="#c8008f"/>
  </g>
  <path d="m124.39 156.35c26.264 2.2479-28.072 2.8739-31.384 2.9831-16.794-0.77307 35.544 1.7153 53.723 2.622 38.207 3.1433-51.273 1.3775-56.346 1.6326 1.5456-5.4601 70.037-5.7744 51.532 0.92259-29.225 8.5574-23.915 5.3806 4.2338 6.9022 19.112 0.0779 31.006-1.9386 47.049-2.9098 0.56861 1.8313 1.5299 3.7077 4.7873 6.7789-7.8626-0.14532-6.3285-0.0664-20.438 0.37385-24.583 1.433-99.045 7.6439-49.783-11.553 13.341-3.5933-65.008 2.507-24.082-3.7718 16.988-0.1343 89.728 1.088 30.855 4.4738-20.961-1.2539-95.887-3.9557-29.29-8.4557 30.625-0.8879 39.139 2.6146 5.2236 2.7361l13.919-2.7353 5e-5 4e-5z" fill="url(#a)"/>
 </g>
</svg>
