<?xml version="1.0" encoding="UTF-8"?>
<svg viewBox="0 0 174.27351 197.66248" xmlns="http://www.w3.org/2000/svg">
 <defs>
  <linearGradient id="a" x1="32.615" x2="289.93" gradientUnits="userSpaceOnUse">
   <stop offset="0"/>
   <stop stop-opacity="0" offset="1"/>
  </linearGradient>
 </defs>
 <g transform="translate(-50.905 80.475)">
  <path d="m118.07 96.164c38.223 2.2479-40.855 2.8739-45.675 2.9831-24.441-0.77307 51.729 1.7153 78.186 2.622 55.605 3.1433-74.621 1.3775-82.003 1.6326 2.2495-5.4601 101.93-5.7744 74.998 0.92259-42.532 8.5574-34.804 5.3806 6.1616 6.9022 24.945 1.4269 45.124-1.9386 68.473-2.9098 0.82753 1.8313 2.2266 3.7077 6.9672 6.7789-11.443-0.14532-11.67-0.96574-32.205-0.52548-22.082-1.1211-74.96 3.3865-65.374 2.0018 45.954-1.53-102.71 7.1538-4.6174-12.655 19.415-3.5933-94.609 2.507-35.047-3.7718 24.724-0.1343 130.59 1.088 44.905 4.4738-30.506-1.2539-139.55-3.9557-42.627-8.4557 44.571-0.8879 56.961 2.6146 7.6022 2.7361l20.258-2.7353 9e-5 4e-5z" fill="url(#a)"/>
  <path transform="translate(-3.0305 .21678)" d="m105.43 9.9457c1.3535-0.0444 0.98372-6.4112 1.7031-7.2105 10.808-15.473 26.677-19.63 44.056-24.228" fill="none" stroke="#008a25" stroke-width="1.9"/>
  <path transform="translate(-3.0305 .21678)" d="m129.45 40.799c31.87 7.6316 40.723 31.81 61.236 52.443 1.9029 0.07196 8.5452-7.2155 8.5452-7.2155" fill="none" stroke="#008a25" stroke-width="1.9"/>
  <path transform="translate(-3.0305 .21678)" d="m126.37 41.834c-18.682 26.077-33.119 34.508-64.407 31.998-2.3516-0.26747 2.8822 9.255 2.8822 9.255" fill="none" stroke="#008a25" stroke-width="1.9"/>
  <path transform="translate(-3.0305 .21678)" d="m199.52 85.709c3.4135 1.7532 8.4917-1.6605 6.4267 0.2911-4.2514 4.018-4.3858 2.6433-8.863 5.1218-4.8486 2.6841-11.524 3.883 2.4363-5.4129z" fill-rule="evenodd" stroke="#008a25"  fill="#008a25" />
  <path transform="translate(-3.0305 .21678)" d="m65.144 74.796c-3.4837 0.10173-4.8173-3.1579-4.0135-0.22985 1.6548 6.0282 5.0526 13.269 10.265 13.053 5.6738-0.23541 0.86916 3.1027-6.2515-12.823z" fill-rule="evenodd" stroke="#008a25"  fill="#008a25" />
  <path transform="translate(-3.0305 .21678)" d="m103.76 10.069c1.1317 2.4918-0.22136 2.8764 0.82254 4.1894 2.0895 2.6282 3.6387 2.3528 2.5355-2.8244-1.2008-5.6356 1.9891-16.869-3.358-1.365z" fill-rule="evenodd" stroke="#008a25"  fill="#008a25" />
  <path transform="translate(-3.0305 .21678)" d="m153.13-21.912c20.872 14.58 35.699 14.431 59.479 17.394" fill="none" stroke="#008a25" stroke-width="1.9"/>
  <path transform="translate(-3.0305 .21678)" d="m217.71-7.9722c2.8835-0.8314 7.8616-4.2338 7.2561-2.3397-0.57967 1.8142-2.4091 7.9973-5.8522 6.7082-3.7479-1.4033-11.716 1.971-1.4039-4.3685z" fill-rule="evenodd" stroke="#008a25"  fill="#008a25" />
  <path d="m149.88-31.012c-0.52538 3.0394-0.29758 4.8157-0.98365 7.1792 5.5591 19.023-18.12 65.318-24.569 65.256-4.8536-0.04681 23.875-42.339 24.474-65.247 0.0556-2.125 0.73696-3.2275 1.0786-7.1885z" fill="none" stroke="#008a25" stroke-width="3"/>
  <path transform="matrix(1.0534 .26143 -.25945 .96698 -220.3 -540.89)" d="m444.03 362.03c5.1653-9.4742 13.303-9.0126 18.175 1.0312s4.635 25.866-0.53031 35.34-13.303 9.0126-18.175-1.0312c-4.8278-9.9517-4.6452-25.601 0.40978-35.116" fill="none" stroke="#008a25" stroke-linecap="round" stroke-width="2.3534"/>
  <path transform="matrix(.99055 .13714 -.13714 .99055 -74.388 -468.71)" d="m293.26 368.63c1.4348-1.7595 3.6952-1.6738 5.0486 0.1915s1.2875 4.8037-0.14731 6.5632-3.6952 1.6738-5.0486-0.1915c-1.3411-1.8482-1.2903-4.7544 0.11383-6.5216" fill="none" stroke="#008a25" stroke-linecap="round" stroke-width="2.075"/>
  <path d="m165.23-38.568c-4.1711 0.29138-6.769-2.2382-8.0164-5.108" fill="none" stroke="#008a25" stroke-width="1.25"/>
 </g>
</svg>
